<?xml version="1.0" encoding="utf-8"?>
<!-- Generator: Adobe Illustrator 22.1.0, SVG Export Plug-In . SVG Version: 6.00 Build 0)  -->
<svg version="1.1" id="Icon_Set" xmlns="http://www.w3.org/2000/svg" xmlns:xlink="http://www.w3.org/1999/xlink" x="0px" y="0px"
	 viewBox="0 0 512 512" style="enable-background:new 0 0 512 512;" xml:space="preserve">
<style type="text/css">
	.st0{fill:#F0C48A;}
	.st1{fill:#FD919E;}
	.st2{fill:#4C4372;}
	.st3{fill:#D3E6F8;}
	.st4{fill:#A4CFF2;}
	.st5{fill:#7BABF1;}
	.st6{fill:#FFFFFF;}
	.st7{fill:#E8677D;}
	.st8{fill:none;stroke:#4C4372;stroke-width:12;stroke-linecap:round;stroke-linejoin:round;stroke-miterlimit:10;}
</style>
<g id="Symptom_List">
	<g>
		<g>
			<circle class="st0" cx="256" cy="256" r="207"/>
		</g>
	</g>
	<g>
		<g>
			<g>
				<path class="st4" d="M359.806,411.395H152.194c-8.273,0-14.98-6.707-14.98-14.98v-263.19c0-8.273,6.707-14.98,14.98-14.98
					h207.613c8.273,0,14.98,6.707,14.98,14.98v263.19C374.786,404.688,368.08,411.395,359.806,411.395z"/>
			</g>
			<g>
				<path class="st5" d="M359.806,118.245h-35.948v293.15h35.948c8.273,0,14.98-6.707,14.98-14.98v-263.19
					C374.786,124.951,368.08,118.245,359.806,118.245z"/>
			</g>
			<g>
				<path class="st2" d="M359.807,417.395H152.194c-11.569,0-20.98-9.412-20.98-20.98v-263.19c0-11.569,9.412-20.98,20.98-20.98
					h207.613c11.568,0,20.979,9.412,20.979,20.98v263.19C380.786,407.983,371.375,417.395,359.807,417.395z M152.194,124.245
					c-4.952,0-8.98,4.029-8.98,8.98v263.19c0,4.952,4.029,8.98,8.98,8.98h207.613c4.951,0,8.979-4.029,8.979-8.98v-263.19
					c0-4.952-4.028-8.98-8.979-8.98H152.194z"/>
			</g>
		</g>
		<g>
			<rect x="163.175" y="145.856" class="st6" width="185.65" height="237.927"/>
		</g>
		<g>
			<rect x="323.858" y="145.856" class="st3" width="24.967" height="237.927"/>
		</g>
		<g>
			<rect x="192.584" y="256.517" class="st1" width="31.317" height="31.317"/>
		</g>
		<g>
			<rect x="192.584" y="320.837" class="st1" width="31.317" height="31.317"/>
		</g>
		<g>
			<path class="st2" d="M348.825,389.783h-185.65c-3.313,0-6-2.686-6-6V145.856c0-3.314,2.687-6,6-6h185.65c3.313,0,6,2.686,6,6
				v237.927C354.825,387.097,352.139,389.783,348.825,389.783z M169.175,377.783h173.65V151.856h-173.65V377.783z"/>
		</g>
		<g>
			<path class="st2" d="M208.419,231.635c-1.701,0-3.324-0.722-4.462-1.989l-20.277-22.562c-2.215-2.465-2.013-6.258,0.452-8.473
				c2.464-2.215,6.258-2.013,8.473,0.452l15.656,17.42l21.156-25.246c2.128-2.54,5.913-2.873,8.452-0.745
				c2.54,2.128,2.874,5.913,0.745,8.453l-25.596,30.544c-1.117,1.333-2.756,2.115-4.495,2.145
				C208.489,231.635,208.454,231.635,208.419,231.635z"/>
		</g>
		<g>
			<path class="st2" d="M223.901,293.834h-31.317c-3.313,0-6-2.686-6-6v-31.317c0-3.314,2.687-6,6-6h31.317c3.313,0,6,2.686,6,6
				v31.317C229.901,291.148,227.214,293.834,223.901,293.834z M198.584,281.834h19.317v-19.317h-19.317V281.834z"/>
		</g>
		<g>
			<path class="st2" d="M223.901,358.154h-31.317c-3.313,0-6-2.686-6-6v-31.317c0-3.314,2.687-6,6-6h31.317c3.313,0,6,2.686,6,6
				v31.317C229.901,355.468,227.214,358.154,223.901,358.154z M198.584,346.154h19.317v-19.317h-19.317V346.154z"/>
		</g>
		<g>
			<path class="st2" d="M323.858,223.907h-77.22c-3.313,0-6-2.686-6-6s2.687-6,6-6h77.22c3.313,0,6,2.686,6,6
				S327.172,223.907,323.858,223.907z"/>
		</g>
		<g>
			<path class="st2" d="M323.858,278.265h-77.22c-3.313,0-6-2.686-6-6s2.687-6,6-6h77.22c3.313,0,6,2.686,6,6
				S327.172,278.265,323.858,278.265z"/>
		</g>
		<g>
			<path class="st2" d="M323.858,342.496h-77.22c-3.313,0-6-2.686-6-6s2.687-6,6-6h77.22c3.313,0,6,2.686,6,6
				S327.172,342.496,323.858,342.496z"/>
		</g>
		<g>
			<path class="st1" d="M285.105,163.549h-58.21c-7.745,0-14.023-6.278-14.023-14.023v-34.898c0-7.745,6.278-14.023,14.023-14.023
				h58.21c7.745,0,14.023,6.278,14.023,14.023v34.898C299.129,157.271,292.85,163.549,285.105,163.549z"/>
		</g>
		<g>
			<path class="st7" d="M285.105,100.605h-6.162v62.945h6.162c7.745,0,14.023-6.279,14.023-14.023v-34.898
				C299.129,106.884,292.85,100.605,285.105,100.605z"/>
		</g>
		<g>
			<path class="st2" d="M285.105,169.55h-58.21c-11.041,0-20.023-8.982-20.023-20.023v-34.898c0-11.041,8.982-20.023,20.023-20.023
				h58.21c11.041,0,20.023,8.982,20.023,20.023v34.898C305.129,160.567,296.146,169.55,285.105,169.55z M226.895,106.605
				c-4.424,0-8.023,3.599-8.023,8.023v34.898c0,4.424,3.599,8.023,8.023,8.023h58.21c4.424,0,8.023-3.599,8.023-8.023v-34.898
				c0-4.424-3.6-8.023-8.023-8.023H226.895z"/>
		</g>
		<g>
			<path class="st2" d="M278.943,138.077h-45.887c-3.313,0-6-2.686-6-6s2.687-6,6-6h45.887c3.313,0,6,2.686,6,6
				S282.257,138.077,278.943,138.077z"/>
		</g>
	</g>
</g>
</svg>
