<?xml version="1.0" encoding="iso-8859-1"?>
<!-- Generator: Adobe Illustrator 19.0.0, SVG Export Plug-In . SVG Version: 6.00 Build 0)  -->
<svg version="1.1" id="Layer_1" xmlns="http://www.w3.org/2000/svg" xmlns:xlink="http://www.w3.org/1999/xlink" x="0px" y="0px"
	 viewBox="0 0 512 512" style="enable-background:new 0 0 512 512;" xml:space="preserve">
<g>
	<g>
		<path d="M372.87,414.687V183.652c0-45.084-26.397-85.967-66.783-105.173V50.087C306.087,22.469,283.618,0,256,0
			c-27.618,0-50.087,22.469-50.087,50.087V78.48c-40.386,19.204-66.783,60.089-66.783,105.173v231.034
			c-19.435,6.891-33.391,25.46-33.391,47.226c0,27.618,22.469,50.087,50.087,50.087h200.348c27.618,0,50.087-22.469,50.087-50.087
			C406.261,440.146,392.304,421.577,372.87,414.687z M356.174,478.609H155.826c-9.206,0-16.696-7.49-16.696-16.696
			s7.49-16.696,16.696-16.696h66.783c9.22,0,16.696-7.475,16.696-16.696s-7.475-16.696-16.696-16.696h-50.087V183.652
			c0-35,22.377-66.469,55.679-78.308c6.656-2.366,11.104-8.666,11.104-15.731V50.087c0-9.206,7.49-16.696,16.696-16.696
			s16.696,7.49,16.696,16.696v39.525c0,7.065,4.447,13.364,11.104,15.731c33.302,11.841,55.679,43.31,55.679,78.309v228.174h-50.087
			c-9.22,0-16.696,7.475-16.696,16.696s7.475,16.696,16.696,16.696h66.783c9.206,0,16.696,7.49,16.696,16.696
			S365.38,478.609,356.174,478.609z"/>
	</g>
</g>
<g>
	<g>
		<path d="M272.602,136.797c-8.686-3.09-18.236,1.446-21.326,10.133c-3.091,8.687,1.446,18.236,10.132,21.326
			c4.193,1.491,11.287,6.412,11.287,15.396v66.783c0,9.22,7.475,16.696,16.696,16.696s16.696-7.475,16.696-16.696v-66.783
			C306.087,159.515,289.27,142.727,272.602,136.797z"/>
	</g>
</g>
<g>
</g>
<g>
</g>
<g>
</g>
<g>
</g>
<g>
</g>
<g>
</g>
<g>
</g>
<g>
</g>
<g>
</g>
<g>
</g>
<g>
</g>
<g>
</g>
<g>
</g>
<g>
</g>
<g>
</g>
</svg>
