<svg width="232" height="238" viewBox="0 0 232 238" fill="none" xmlns="http://www.w3.org/2000/svg">
<path d="M174 182.219H58C56.7421 182.219 55.5785 181.549 54.9151 180.456C54.2517 179.359 54.1937 177.991 54.7556 176.838L112.756 57.8378C113.988 55.3164 118.008 55.3164 119.241 57.8378L177.241 176.838C177.803 177.991 177.745 179.359 177.081 180.456C176.421 181.549 175.258 182.219 174 182.219ZM63.8652 174.781H168.135L116 67.8152L63.8652 174.781Z" fill="#DC9600"/>
<path d="M156.23 133.723C153.979 134.667 151.815 135.786 149.752 137.058L168.135 174.781H127.013C126.922 176.008 126.875 177.251 126.875 178.5C126.875 179.75 126.922 180.992 127.013 182.219H174C175.258 182.219 176.422 181.549 177.085 180.456C177.748 179.359 177.806 177.991 177.244 176.838L156.23 133.723Z" fill="#BE7800"/>
<path d="M104.987 182.219C105.078 180.992 105.125 179.749 105.125 178.5C105.125 177.25 105.078 176.008 104.987 174.781H63.8652L82.2476 137.062C80.185 135.786 78.0209 134.667 75.7697 133.726L54.7556 176.838C54.1937 177.99 54.2517 179.359 54.9151 180.456C55.5785 181.549 56.7421 182.219 58 182.219H104.987Z" fill="#BE7800"/>
<path d="M98.2302 104.274L116 67.8151L133.77 104.277C136.021 103.333 138.185 102.214 140.248 100.942L119.241 57.8414C118.008 55.3201 113.988 55.3201 112.756 57.8414L91.7487 100.942C93.8114 102.214 95.9791 103.333 98.2302 104.274Z" fill="#BE7800"/>
<path d="M116 104.125C140.024 104.125 159.5 84.1457 159.5 59.5C159.5 34.8543 140.024 14.875 116 14.875C91.9756 14.875 72.5 34.8543 72.5 59.5C72.5 84.1457 91.9756 104.125 116 104.125Z" fill="#00A0C8"/>
<path d="M58 223.125C82.0244 223.125 101.5 203.146 101.5 178.5C101.5 153.854 82.0244 133.875 58 133.875C33.9756 133.875 14.5 153.854 14.5 178.5C14.5 203.146 33.9756 223.125 58 223.125Z" fill="#C80A50"/>
<path d="M87 204.531C87 198.369 82.1316 193.375 76.125 193.375H39.875C33.8684 193.375 29 198.369 29 204.531V211.757C36.6959 218.822 46.8568 223.125 58 223.125C69.1432 223.125 79.3041 218.826 87 211.757V204.531Z" fill="#FAB400"/>
<path d="M43.5 193.375C43.5 201.59 49.9924 208.25 58 208.25C66.0076 208.25 72.5 201.59 72.5 193.375H43.5Z" fill="#00A0C8"/>
<path d="M58 200.812C53.9944 200.812 50.75 197.484 50.75 193.375V182.219H65.25V193.375C65.25 197.484 62.0056 200.812 58 200.812Z" fill="#D2AA82"/>
<path d="M61.625 185.938H54.375C48.3684 185.938 43.5 180.943 43.5 174.781V163.625C43.5 159.516 46.7444 156.188 50.75 156.188H65.25C69.2556 156.188 72.5 159.516 72.5 163.625V174.781C72.5 180.943 67.6316 185.938 61.625 185.938Z" fill="#F0C8A0"/>
<path d="M65.25 156.188H50.75C46.7444 156.188 43.5 159.516 43.5 163.625V156.188C43.5 152.078 46.7444 148.75 50.75 148.75H65.25C69.2556 148.75 72.5 152.078 72.5 156.188V163.625C72.5 159.516 69.2556 156.188 65.25 156.188Z" fill="#0A5078"/>
<path d="M174 223.125C198.024 223.125 217.5 203.146 217.5 178.5C217.5 153.854 198.024 133.875 174 133.875C149.976 133.875 130.5 153.854 130.5 178.5C130.5 203.146 149.976 223.125 174 223.125Z" fill="#0A5078"/>
<path d="M203 204.531C203 198.369 198.132 193.375 192.125 193.375H155.875C149.868 193.375 145 198.369 145 204.531V211.757C152.696 218.822 162.857 223.125 174 223.125C185.143 223.125 195.304 218.826 203 211.757V204.531Z" fill="#00A0C8"/>
<path d="M159.5 193.375C159.5 201.59 165.992 208.25 174 208.25C182.008 208.25 188.5 201.59 188.5 193.375H159.5Z" fill="#0A5078"/>
<path d="M174 200.812C169.994 200.812 166.75 197.484 166.75 193.375V182.219H181.25V193.375C181.25 197.484 178.006 200.812 174 200.812Z" fill="#D2AA82"/>
<path d="M177.625 185.938H170.375C164.368 185.938 159.5 180.943 159.5 174.781V163.625C159.5 159.516 162.744 156.188 166.75 156.188H181.25C185.256 156.188 188.5 159.516 188.5 163.625V174.781C188.5 180.943 183.632 185.938 177.625 185.938Z" fill="#F0C8A0"/>
<path d="M181.25 156.188H166.75C162.744 156.188 159.5 159.516 159.5 163.625V156.188C159.5 152.078 162.744 148.75 166.75 148.75H181.25C185.256 148.75 188.5 152.078 188.5 156.188V163.625C188.5 159.516 185.256 156.188 181.25 156.188Z" fill="#DC9600"/>
<path d="M123 38L109 37.5172C104.856 37.5172 101.5 40.8735 101.5 45.0172L101 37.5C101 33.3562 104.356 30 108.5 30H123.5C127.644 30 131 33.3562 131 37.5L130.5 45.5C130.5 41.3562 127.144 38 123 38Z" fill="#C80850"/>
<path d="M130.5 74.375H101.5C93.4924 74.375 87 81.0353 87 89.25V92.7568C94.6959 99.8224 104.857 104.125 116 104.125C127.143 104.125 137.304 99.8261 145 92.7568V89.25C145 81.0353 138.508 74.375 130.5 74.375Z" fill="#C80A50"/>
<path d="M101.5 74.375C101.5 82.5897 107.992 89.25 116 89.25C124.008 89.25 130.5 82.5897 130.5 74.375H101.5Z" fill="#00A0C8"/>
<path d="M116 81.8125C111.994 81.8125 108.75 78.4842 108.75 74.375V63.2188H123.25V74.375C123.25 78.4842 120.006 81.8125 116 81.8125Z" fill="#D2AA82"/>
<path d="M119.625 66.9375H112.375C106.368 66.9375 101.5 61.9432 101.5 55.7812V44.625C101.5 40.5158 104.744 37.1875 108.75 37.1875H123.25C127.256 37.1875 130.5 40.5158 130.5 44.625V55.7812C130.5 61.9432 125.632 66.9375 119.625 66.9375Z" fill="#F0C8A0"/>
</svg>
