<?xml version="1.0" encoding="utf-8"?>
<!-- Generator: Adobe Illustrator 21.0.0, SVG Export Plug-In . SVG Version: 6.00 Build 0)  -->
<svg version="1.1" id="Layer_1" xmlns="http://www.w3.org/2000/svg" xmlns:xlink="http://www.w3.org/1999/xlink" x="0px" y="0px"
	 viewBox="0 0 128 128" style="enable-background:new 0 0 128 128;" xml:space="preserve">
<style type="text/css">
	.st0{fill:#CFF1FB;}
	.st1{fill:#91DEF5;}
	.st2{fill:#F6F7F7;}
	.st3{fill:#FFCFB8;}
	.st4{fill:#FFA77B;}
	.st5{fill:#E9EAEB;}
	.st6{fill:#746887;}
	.st7{fill:#F98770;}
	.st8{fill:#9B9B9B;}
	.st9{fill:#FFDDCF;}
	.st10{fill:#FFFFFF;}
	.st11{fill:#B7B7B7;}
	.st12{fill:#FFBC99;}
	.st13{fill:#DBDCDE;}
	.st14{fill:#FECFBA;}
	.st15{fill:#D0F1FA;}
	.st16{fill:#FDA77F;}
	.st17{fill:#94DEF4;}
</style>
<g>
	<g>
		<path class="st2" d="M103.5,2h-99c-1.66,0-3,1.34-3,3v20.072v7.99V109c0,1.66,1.34,3,3,3h99c1.66,0,3-1.34,3-3V5
			C106.5,3.34,105.16,2,103.5,2z"/>
		<path class="st3" d="M55.084,32.883c-1.161-1.969-4.008-1.969-5.169,0L15.667,90.976c-1.179,2,0.263,4.524,2.584,4.524h68.498
			c2.322,0,3.763-2.524,2.584-4.524L55.084,32.883z"/>
		<path class="st0" d="M123.5,16h-17v93c0,1.66-1.34,3-3,3h-82v11c0,1.66,1.34,3,3,3h99c1.66,0,3-1.34,3-3v-6.859v-8.008V19
			C126.5,17.34,125.16,16,123.5,16z"/>
		<path class="st4" d="M103.5,2h-99c-1.66,0-3,1.34-3,3v11h105V5C106.5,3.34,105.16,2,103.5,2z"/>
		<path class="st2" d="M54.653,51.5h-4.306c-1.278,0-2.275,1.105-2.145,2.376l2.153,20.989c0.113,1.1,1.039,1.936,2.145,1.936
			s2.032-0.836,2.145-1.936l2.153-20.989C56.928,52.605,55.931,51.5,54.653,51.5z"/>
		<circle class="st2" cx="52.5" cy="84.756" r="3.244"/>
		<path class="st4" d="M123.5,16h-17v14h20V19C126.5,17.34,125.16,16,123.5,16z"/>
	</g>
	<g>
		<path class="st7" d="M103.5,0.5h-99C2.019,0.5,0,2.519,0,5v11c0,0.829,0.671,1.5,1.5,1.5h105c0.828,0,1.5-0.671,1.5-1.5V5
			C108,2.519,105.981,0.5,103.5,0.5z M105,14.5H3V5c0-0.827,0.673-1.5,1.5-1.5h99c0.827,0,1.5,0.673,1.5,1.5V14.5z"/>
		<path class="st7" d="M54.653,50h-4.306c-1.033,0-2.022,0.439-2.714,1.206s-1.028,1.795-0.923,2.823l2.152,20.989
			c0.192,1.872,1.755,3.283,3.637,3.283s3.445-1.412,3.637-3.283l2.152-20.989c0.105-1.027-0.231-2.056-0.923-2.823
			S55.686,50,54.653,50z M53.153,74.712c-0.034,0.335-0.315,0.589-0.653,0.589s-0.619-0.253-0.653-0.589l-2.152-20.989
			c-0.026-0.253,0.093-0.426,0.166-0.507C49.933,53.136,50.094,53,50.347,53h4.306c0.253,0,0.414,0.136,0.487,0.216
			c0.073,0.081,0.191,0.254,0.166,0.507L53.153,74.712z"/>
		<path class="st7" d="M52.5,80.012c-2.616,0-4.744,2.128-4.744,4.744S49.884,89.5,52.5,89.5s4.744-2.128,4.744-4.744
			S55.116,80.012,52.5,80.012z M52.5,86.5c-0.961,0-1.744-0.782-1.744-1.744c0-0.962,0.782-1.744,1.744-1.744
			s1.744,0.782,1.744,1.744C54.244,85.718,53.461,86.5,52.5,86.5z"/>
		<path class="st6" d="M103.5,0.5h-99C2.019,0.5,0,2.519,0,5v20.072c0,0.829,0.671,1.5,1.5,1.5S3,25.9,3,25.072V5
			c0-0.827,0.673-1.5,1.5-1.5h99c0.827,0,1.5,0.673,1.5,1.5v104c0,0.827-0.673,1.5-1.5,1.5h-99c-0.827,0-1.5-0.673-1.5-1.5V33.062
			c0-0.829-0.671-1.5-1.5-1.5S0,32.233,0,33.062V109c0,2.481,2.019,4.5,4.5,4.5h99c2.481,0,4.5-2.019,4.5-4.5V5
			C108,2.519,105.981,0.5,103.5,0.5z"/>
		<path class="st6" d="M14.5,7.5h-3C10.671,7.5,10,8.171,10,9s0.671,1.5,1.5,1.5h3c0.829,0,1.5-0.671,1.5-1.5S15.329,7.5,14.5,7.5z"
			/>
		<path class="st6" d="M23.5,7.5h-3C19.671,7.5,19,8.171,19,9s0.671,1.5,1.5,1.5h3c0.829,0,1.5-0.671,1.5-1.5S24.329,7.5,23.5,7.5z"
			/>
		<path class="st6" d="M56.376,32.122c-0.817-1.387-2.267-2.214-3.876-2.214s-3.059,0.828-3.876,2.214L14.375,90.214
			c-0.831,1.409-0.842,3.098-0.031,4.518C15.155,96.152,16.616,97,18.251,97h68.498c1.635,0,3.096-0.848,3.907-2.268
			c0.811-1.42,0.8-3.109-0.031-4.518L56.376,32.122z M88.051,93.244C87.921,93.472,87.534,94,86.749,94H18.251
			c-0.786,0-1.172-0.529-1.302-0.756c-0.13-0.228-0.389-0.829,0.01-1.506l34.249-58.093c0.393-0.666,1.035-0.738,1.292-0.738
			s0.899,0.072,1.292,0.738l34.249,58.093C88.439,92.415,88.181,93.017,88.051,93.244z"/>
		<path class="st7" d="M123.5,14.5h-17c-0.828,0-1.5,0.671-1.5,1.5v14c0,0.829,0.672,1.5,1.5,1.5h20c0.828,0,1.5-0.671,1.5-1.5V19
			C128,16.519,125.981,14.5,123.5,14.5z M125,28.5h-17v-11h15.5c0.827,0,1.5,0.673,1.5,1.5V28.5z"/>
		<path class="st6" d="M123.5,14.5h-17c-0.828,0-1.5,0.671-1.5,1.5v93c0,0.827-0.673,1.5-1.5,1.5h-82c-0.829,0-1.5,0.671-1.5,1.5v11
			c0,2.481,2.019,4.5,4.5,4.5h99c2.481,0,4.5-2.019,4.5-4.5v-6.859c0-0.829-0.672-1.5-1.5-1.5s-1.5,0.671-1.5,1.5V123
			c0,0.827-0.673,1.5-1.5,1.5h-99c-0.827,0-1.5-0.673-1.5-1.5v-9.5h80.5c2.481,0,4.5-2.019,4.5-4.5V17.5h15.5
			c0.827,0,1.5,0.673,1.5,1.5v89.133c0,0.829,0.672,1.5,1.5,1.5s1.5-0.671,1.5-1.5V19C128,16.519,125.981,14.5,123.5,14.5z"/>
	</g>
</g>
<g>
</g>
</svg>
