<svg width="260" height="240" viewBox="0 0 260 240" fill="none" xmlns="http://www.w3.org/2000/svg">
<g clip-path="url(#clip0_8_2)">
<path d="M261.217 119.366L256.253 107.343L243.252 92.2135L237.533 74.4078L223.775 65.654L218.082 33.8814L209.1 30.7475L201.493 2L193.13 14.8327L185.577 50.8754L179.642 52.4693L148.107 31.2062L151.262 19.2096L159.032 12.0772L136.1 7.07978L112.792 12.8075L101.651 31.2601L85.0334 24.1002L67.6094 34.4988L66.3266 45.4264L56.8427 48.3904L47.6168 70.2211L2.67336 92.5369L2 112.315L9.06773 121.852L5.47953 127.472L22.1145 161.083L20.9008 180.535L33.4539 184.831L52.6076 174.132L73.9459 172.132L77.0476 165.892L89.296 158.544L119.995 151.735L136.478 157.139L144.787 169.188L164.398 175.43L171.359 194.044L192.751 207.77L201.706 201.393L212.172 207.932L231.084 201.664L246.73 169.405L251.478 166.999L262 142.331L261.217 119.366ZM202.867 242L215.034 240.028L218.569 226.275L199.361 222.277L202.867 242Z" fill="#303C6C"/>
<path fill-rule="evenodd" clip-rule="evenodd" d="M174.667 99.6665V86.3332C174.667 82.6513 177.652 79.6665 181.333 79.6665H194.667C198.349 79.6665 201.333 82.6513 201.333 86.3332V99.6665H214.667C218.349 99.6665 221.333 102.651 221.333 106.333V119.667C221.333 123.348 218.349 126.333 214.667 126.333H201.333V139.667C201.333 143.348 198.349 146.333 194.667 146.333H181.333C177.652 146.333 174.667 143.348 174.667 139.667V126.333H161.333C157.652 126.333 154.667 123.348 154.667 119.667V106.333C154.667 102.651 157.652 99.6665 161.333 99.6665H174.667ZM181.333 86.3332V103C181.333 104.841 179.841 106.333 178 106.333H161.333V119.667H178C179.841 119.667 181.333 121.159 181.333 123V139.667H194.667V123C194.667 121.159 196.159 119.667 198 119.667H214.667V106.333H198C196.159 106.333 194.667 104.841 194.667 103V86.3332H181.333Z" fill="white"/>
</g>
<defs>
<clipPath id="clip0_8_2">
<rect width="260" height="240" fill="white"/>
</clipPath>
</defs>
</svg>
