<?xml version="1.0" encoding="iso-8859-1"?>
<!-- Generator: Adobe Illustrator 19.0.0, SVG Export Plug-In . SVG Version: 6.00 Build 0)  -->
<svg version="1.1" id="Capa_1" xmlns="http://www.w3.org/2000/svg" xmlns:xlink="http://www.w3.org/1999/xlink" x="0px" y="0px"
	 viewBox="0 0 511.997 511.997" style="enable-background:new 0 0 511.997 511.997;" xml:space="preserve">
<path style="fill:#FAEBC8;" d="M380.5,462.221l-0.5,0.138v-0.276l-123.997-34.205h-0.008l-123.997,34.205v0.276l-0.5-0.138
	l-0.5,0.138v-0.276L10.446,428.828c-2.035-0.561-3.445-2.413-3.445-4.524V166.996c0-3.1,2.953-5.348,5.941-4.524l117.307,32.361
	c0.817,0.225,1.679,0.225,2.496,0l123.25-34h0.008l123.25,33.999c0.817,0.225,1.679,0.225,2.496,0l113.009-31.175
	c0.326-0.092,0.681-0.167,1.022-0.219l3.812-0.586c2.843-0.437,5.406,1.762,5.406,4.638v256.813c0,2.111-1.409,3.963-3.445,4.524
	l-120.552,33.255v0.276L380.5,462.221z"/>
<path style="fill:#E8CD95;" d="M130.917,194.962c-0.225-0.028-0.448-0.069-0.668-0.13l-117.306-32.36
	c-2.989-0.824-5.941,1.423-5.941,4.524v257.308c0,2.111,1.409,3.963,3.445,4.524l120.471,33.233V194.962z"/>
<path id="SVGCleanerId_0" style="fill:#F4D392;" d="M57.012,389.794V226.508l59.939,16.535c4.738,1.307,9.632,1.969,14.546,1.969
	s9.807-0.662,14.544-1.968L256,212.71l109.956,30.333c4.738,1.307,9.632,1.969,14.546,1.969s9.807-0.662,14.544-1.968l59.942-16.536
	v163.286l-74.492,20.546l-113.209-31.229c-2.989-0.826-6.085-1.245-9.196-1.245h-4.178c-3.111,0-6.207,0.419-9.203,1.247
	l-113.219,31.227L57.012,389.794z"/>
<g>
	<path id="SVGCleanerId_0_1_" style="fill:#F4D392;" d="M57.012,389.794V226.508l59.939,16.535
		c4.738,1.307,9.632,1.969,14.546,1.969s9.807-0.662,14.544-1.968L256,212.71l109.956,30.333c4.738,1.307,9.632,1.969,14.546,1.969
		s9.807-0.662,14.544-1.968l59.942-16.536v163.286l-74.492,20.546l-113.209-31.229c-2.989-0.826-6.085-1.245-9.196-1.245h-4.178
		c-3.111,0-6.207,0.419-9.203,1.247l-113.219,31.227L57.012,389.794z"/>
</g>
<g>
	<path style="fill:#E8CD95;" d="M353.129,187.626l-97.125-26.793h-0.008l-97.998,27.034c26.852,47.947,77.589,98.119,90.619,110.618
		l6.88,6.6l6.88-6.6C275.427,285.965,326.313,235.646,353.129,187.626z"/>
	<path style="fill:#E8CD95;" d="M381.315,194.922c-0.684,0.12-1.387,0.097-2.06-0.089l-123.251-34h-0.008l-1.195,0.33v267.045
		l1.195-0.33h0.008L380,462.083v0.276l0.5-0.138l0.5,0.138v-0.276l0.313-0.086V194.922H381.315z"/>
</g>
<path style="fill:#D6AF6B;" d="M254.8,304.418l0.695,0.667l6.879-6.6c13.051-12.52,63.937-62.839,90.754-110.859l-97.125-26.793
	h-0.008l-1.195,0.33V304.418z"/>
<g>
	<path style="fill:#E5B96C;" d="M187.737,231.542c24.739,31.549,51.854,58.286,60.879,66.943l6.88,6.6l6.879-6.6
		c9.047-8.679,36.271-35.524,61.058-67.172l-67.434-18.602L187.737,231.542z"/>
	<path style="fill:#E5B96C;" d="M381.315,244.999c-0.271,0.004-0.541,0.014-0.812,0.014c-4.915,0-9.809-0.663-14.546-1.969
		L256,212.711l-1.199,0.331v164.826h3.293c3.111,0,6.207,0.419,9.196,1.245l113.207,31.229l0.819-0.226L381.315,244.999
		L381.315,244.999z"/>
</g>
<path style="fill:#D8A34C;" d="M254.8,304.418l0.695,0.667l6.879-6.6c9.047-8.679,36.271-35.524,61.058-67.172l-67.434-18.602
	l-1.199,0.331L254.8,304.418L254.8,304.418z"/>
<path style="fill:#E5B96C;" d="M130.917,245.003c-4.719-0.05-9.415-0.704-13.966-1.959l-59.939-16.536v163.286l73.905,20.387
	V245.003z"/>
<path style="fill:#FF507D;" d="M249.956,272.213c-14.454-13.866-86.559-85.316-86.559-130.322c0-50.783,41.315-92.098,92.098-92.098
	s92.098,41.315,92.098,92.098c0,45.008-72.104,116.457-86.559,130.322l-5.539,5.314L249.956,272.213z"/>
<path style="fill:#EF1846;" d="M298.96,88.927c-11.91-10.674-26.479-16.181-41.118-16.835c-5.184-0.232-8.642-5.434-6.826-10.296
	l1.989-5.328c1.22-3.269-1.386-6.66-4.864-6.384c-47.357,3.76-84.742,43.499-84.742,91.807c0,45.008,72.104,116.457,86.559,130.322
	l5.539,5.314l-15.213-64.415c-1.193-5.054,2.901-9.864,8.07-9.365c23.03,2.223,46.734-7.665,60.981-28.448
	C327.953,148.14,323.481,110.904,298.96,88.927z"/>
<path style="fill:#FFFFFF;" d="M254.8,182.573c-24.555,0-44.532-19.977-44.532-44.532s19.977-44.532,44.532-44.532
	s44.532,19.977,44.532,44.532S279.356,182.573,254.8,182.573z"/>
<path d="M506.505,159.465c-3.809-2.9-8.895-3.857-13.608-2.557l-112.395,31.006l-35.989-9.928
	c6.19-12.679,10.083-25.04,10.083-36.096c0-54.643-44.456-99.099-99.099-99.099s-99.099,44.456-99.099,99.099
	c0,11.126,3.944,23.575,10.203,36.34l-35.102,9.683l-113.71-31.367c-4.375-1.207-9.101-0.317-12.642,2.38
	C1.876,161.417,0,165.13,0,169.114v254.28c0,5.78,4.101,10.948,9.971,12.567l119.533,32.974c0.173,0.048,0.348,0.072,0.522,0.107
	c0.119,0.024,0.236,0.055,0.356,0.073c0.371,0.056,0.744,0.091,1.116,0.091l0,0h0.001c0.372,0,0.745-0.035,1.116-0.091
	c0.12-0.018,0.236-0.049,0.355-0.072c0.175-0.035,0.35-0.059,0.523-0.107l122.506-33.794l122.506,33.794
	c0.173,0.048,0.348,0.072,0.522,0.107c0.119,0.024,0.236,0.055,0.356,0.073c0.371,0.056,0.744,0.091,1.116,0.091l0,0l0,0
	c0.372,0,0.745-0.035,1.116-0.091c0.12-0.018,0.236-0.049,0.355-0.072c0.175-0.035,0.35-0.059,0.523-0.107l118.826-32.778
	c6.386-1.762,10.677-7.153,10.677-13.413V170.321C512,166.081,509.997,162.124,506.505,159.465z M247.994,421.784L139,451.851
	V296.223c0-4.143-3.359-7.502-7.502-7.502l0,0c-4.143,0-7.502,3.359-7.502,7.502v155.628L15.003,421.784V171.341l108.994,30.068
	v51.145c0,4.143,3.359,7.502,7.502,7.502l0,0c4.143,0,7.502-3.359,7.502-7.502v-51.146l34.983-9.65
	c23.548,39.359,63.577,78.371,74.011,88.236V421.784z M255.495,266.439c-27.506-26.386-84.096-88.198-84.096-124.548
	c0-46.37,37.725-84.096,84.096-84.096s84.096,37.725,84.096,84.096C339.592,178.241,283.001,240.053,255.495,266.439z
	 M496.997,421.784l-108.994,30.067v-55.574c0-4.143-3.359-7.502-7.502-7.502l0,0c-4.143,0-7.502,3.359-7.502,7.502v55.574
	l-108.994-30.067V279.036c11.808-11.243,50.311-49.241,73.147-87.518L373,201.407v151.2c0,4.143,3.359,7.502,7.502,7.502l0,0
	c4.143,0,7.502-3.359,7.502-7.502V201.409l108.884-30.037c0.046,0.035,0.064,0.049,0.11,0.084L496.997,421.784L496.997,421.784z"/>
<path d="M254.8,86.507c-28.416,0-51.533,23.118-51.533,51.533s23.118,51.533,51.533,51.533s51.533-23.118,51.533-51.533
	S283.216,86.507,254.8,86.507z M254.8,174.571c-20.143,0-36.53-16.388-36.53-36.53s16.388-36.53,36.53-36.53
	s36.53,16.388,36.53,36.53S274.944,174.571,254.8,174.571z"/>
<g>
</g>
<g>
</g>
<g>
</g>
<g>
</g>
<g>
</g>
<g>
</g>
<g>
</g>
<g>
</g>
<g>
</g>
<g>
</g>
<g>
</g>
<g>
</g>
<g>
</g>
<g>
</g>
<g>
</g>
</svg>
