<svg xmlns="http://www.w3.org/2000/svg" viewBox="0 0 48 48"><defs><style>.cls-1{fill:#a87e6b;}.cls-2{fill:#be927c;}.cls-3{fill:#f6ccaf;}.cls-4{fill:#ffdec7;}.cls-5{fill:#374f68;}.cls-6{fill:#edb996;}.cls-7{fill:#dad7e5;}.cls-8{fill:#2c435e;}.cls-9{fill:#edebf2;}.cls-10{fill:#9dcc6b;}.cls-11{fill:#a82af4;}</style></defs><title>Monkey Virus</title><g id="Monkey_Virus" data-name="Monkey Virus"><path class="cls-1" d="M42,28.33c-8.66-5-18.5,4.56-13.83,13.32C14.41,44,1.54,34.07,7.4,24,9.31,20.67,9,23.7,9,18A15,15,0,0,1,19.28,3.76L20,3V6l5-5V5l5-3V4.25a15.06,15.06,0,0,1,8.55,10.12c.56,2.17.45,3.59.45,7.45A10.73,10.73,0,0,1,42,28.33Z"/><path class="cls-2" d="M42,28.33A10,10,0,0,0,27.16,38.79a23.86,23.86,0,0,1-13.62-2.21A8.52,8.52,0,0,1,9,29c0-5,3-5.21,3-11A15,15,0,0,1,20,4.74V6l5-5V5l5-3V4.25a15.06,15.06,0,0,1,8.55,10.12c.56,2.17.45,3.59.45,7.45A10.74,10.74,0,0,1,42,28.33Z"/><path class="cls-3" d="M28.1,41.55c-13,3-23.15-8.07-15.1-15.62V16.5a5.5,5.5,0,0,1,11,0,5.5,5.5,0,1,1,11,0v9.43a9.83,9.83,0,0,1,1,1.12A10,10,0,0,0,28.1,41.55Z"/><path class="cls-4" d="M36,27.05A10,10,0,0,0,29,31h0a10,10,0,0,0-1.86,7.76c-6,1-15-1.22-15-6.71A8.35,8.35,0,0,1,15,25.93V16.5a5.5,5.5,0,0,1,4.5-5.41A5.5,5.5,0,0,1,24,16.5a5.5,5.5,0,1,1,11,0v9.43A9.83,9.83,0,0,1,36,27.05Z"/><path class="cls-5" d="M27.16,37.75a19.23,19.23,0,0,1-11.62-1.7,1,1,0,0,1-.43-1.35c1-2,3.32,2.41,11.73,1.07A1,1,0,0,1,27.16,37.75Z"/><path class="cls-5" d="M27,26a1,1,0,0,0-2,0A1,1,0,0,0,27,26Z"/><path class="cls-5" d="M23,26a1,1,0,0,0-2,0A1,1,0,0,0,23,26Z"/><path class="cls-5" d="M19,24c-3,0-3.92-4-2-4a1,1,0,0,1,1,1,1,1,0,0,0,2,0,1,1,0,0,1,1-1C22.91,20,22,24,19,24Z"/><path class="cls-5" d="M29,24c-3,0-3.92-4-2-4a1,1,0,0,1,1,1,1,1,0,0,0,2,0,1,1,0,0,1,1-1C32.91,20,32,24,29,24Z"/><path class="cls-1" d="M10.93,10.64C8.71,14.56,9,17.62,9,21.82A12.49,12.49,0,0,0,7.4,24a7,7,0,1,1,3.53-13.33Z"/><path class="cls-6" d="M9.45,14.37A19.42,19.42,0,0,0,9,19.82a3,3,0,1,1,.45-5.45Z"/><path class="cls-1" d="M47,17a7,7,0,0,1-6.4,7A12.49,12.49,0,0,0,39,21.82c0-4.24.3-7.24-1.93-11.18A7,7,0,0,1,47,17Z"/><path class="cls-2" d="M46.7,14.92c.81,2.82-.28,5.83-1.6,6.76-1.91,1.37-3.46,1.15-4.49-.15C39,19.46,41.32,16,38.37,10.2A6.92,6.92,0,0,1,46.7,14.92Z"/><path class="cls-3" d="M43,17a3,3,0,0,1-4,2.82,19.94,19.94,0,0,0-.45-5.45A3,3,0,0,1,43,17Z"/><path class="cls-6" d="M42,18a3.09,3.09,0,0,1-.44,1.57,3,3,0,0,1-2.56.25,20.9,20.9,0,0,0-.3-4.8A3,3,0,0,1,42,18Z"/><path class="cls-7" d="M47,37c0,10.27-14,13.94-18.85,4.65A9.84,9.84,0,0,1,27,37a10,10,0,0,1,20,0Z"/><path class="cls-7" d="M47,37c0,10.27-14,13.94-18.85,4.65A9.84,9.84,0,0,1,27,37a10,10,0,0,1,20,0Z"/><path class="cls-3" d="M28.15,41.65a21.6,21.6,0,0,1-2.71.3A10,10,0,0,1,25,39C28.56,38.72,26.23,38.05,28.15,41.65Z"/><path class="cls-3" d="M27.15,38.74A16.56,16.56,0,0,1,25,39c0-.34,0-.67.05-1,2.49-.11,1.89-.42,2,.07A6.27,6.27,0,0,0,27.15,38.74Z"/><path class="cls-3" d="M27.08,35.77c-.16-.05-.52.08-1.6.17A10,10,0,0,1,29,31,11.21,11.21,0,0,0,27.08,35.77Z"/><path class="cls-8" d="M27,37.77a18.37,18.37,0,0,1-2,.2,9.77,9.77,0,0,1,.43-2C28,35.72,26.74,35.23,27,37.77Z"/><path class="cls-9" d="M47,37a10,10,0,0,1-2,6A10,10,0,0,1,31,29,10,10,0,0,1,47,37Z"/><path class="cls-10" d="M36,33V32a1,1,0,0,1,2,0v1A1,1,0,0,1,36,33Z"/><path class="cls-10" d="M36,42V41a1,1,0,0,1,2,0v1A1,1,0,0,1,36,42Z"/><path class="cls-10" d="M33,38H32a1,1,0,0,1,0-2h1A1,1,0,0,1,33,38Z"/><path class="cls-10" d="M42,38H41a1,1,0,0,1,0-2h1A1,1,0,0,1,42,38Z"/><path class="cls-10" d="M34.17,35.17c-.49,0-.64-.22-1.41-1a1,1,0,0,1,1.41-1.41l.71.7A1,1,0,0,1,34.17,35.17Z"/><path class="cls-10" d="M40.54,41.54c-.5,0-.64-.23-1.42-1a1,1,0,0,1,1.42-1.42l.7.71A1,1,0,0,1,40.54,41.54Z"/><path class="cls-10" d="M34.17,38.83c-.49,0-.64.22-1.41,1a1,1,0,0,0,1.41,1.41l.71-.7A1,1,0,0,0,34.17,38.83Z"/><path class="cls-10" d="M40.54,32.46c-.5,0-.64.23-1.42,1a1,1,0,0,0,1.42,1.42l.7-.71A1,1,0,0,0,40.54,32.46Z"/><circle class="cls-10" cx="37" cy="37" r="4"/><path class="cls-11" d="M37,36a1,1,0,0,0-2,0A1,1,0,0,0,37,36Z"/><path class="cls-11" d="M39,38a1,1,0,0,0-2,0A1,1,0,0,0,39,38Z"/></g></svg>