<svg xmlns="http://www.w3.org/2000/svg" viewBox="0 0 340 340"><g id="Layer_22" data-name="Layer 22"><path d="M173.791,21.729c-17.2.905-15.846,19.015-15.846,19.015A47.278,47.278,0,0,1,137.07,52.551a11.824,11.824,0,0,1-11.584-3.358,32.709,32.709,0,0,0-4.744-4.156c-9.41-6.754-24.471-12.588-44.518-4.519-26,10.466-22.942,36.88-19.24,50.739a37.422,37.422,0,0,0,1.249,3.86,12.682,12.682,0,0,1-.565,10.87c-1.819,3.383-4.258,6.42-7.477,7.876,0,0-11.772-4.969-20.374,3.062s-5.207,16.859-3.169,21.387c1.1,2.438,5.508,5.729,11.281,6.693,11.649,1.944,21.753-7.662,21.276-19.462q-.042-1.056-.186-2.172a38.009,38.009,0,0,1,7.382-7.619A12.424,12.424,0,0,1,78.459,114a47.329,47.329,0,0,0,22.44,2.584,44.144,44.144,0,0,0,13.332-3.544,9.414,9.414,0,0,1,8.246.3l5.341,2.81a7.09,7.09,0,0,0,8.427-1.479L137.7,113.1a7.092,7.092,0,0,0,.578-8.951l-3.989-6.216a6.5,6.5,0,0,1-.72-5.51c1.057-3.269,2.6-8.58,2.628-11.834a11.915,11.915,0,0,1,5.821-10.045c12.257-7.415,25.885-19.383,25.885-19.383,23.316,5.659,24-14.56,24-14.56S191,20.823,173.791,21.729Z" style="fill:#f74f73"/><path d="M37.572,9.794s-10.7,1.078-12.39,10.845c-1.1,6.365,1.03,10.469,3.849,13.083a14.528,14.528,0,0,0,16.053,2.314,5.106,5.106,0,0,1,4.632.087l.228.125A4.175,4.175,0,0,0,55.287,35.1l.73-.969a4.175,4.175,0,0,0,.007-5.018l-1.941-2.589a4.931,4.931,0,0,1-.988-2.691C52.883,19.859,51.083,8.834,37.572,9.794Z" style="fill:#b21f42"/><path d="M176.635,138.562a14.257,14.257,0,0,0,2.248-7.758c.017-5.352-1.656-14.407-12.862-15.969-5.53-.771-9.461.621-12.239,2.779-6.217,4.829-6.907,13.828-2.287,20.2a17.24,17.24,0,0,0,10.74,7.1C169.894,146.431,174.368,142.039,176.635,138.562Z" style="fill:#f74f73"/><path d="M203.312,71.123a10.6,10.6,0,0,0-5.567-2.262c-3.96-.426-10.79.113-12.811,8.285-1,4.034-.271,7.05,1.112,9.273,3.094,4.973,9.7,6.178,14.774,3.251a12.824,12.824,0,0,0,6.081-7.4C208.616,76.719,205.71,73.069,203.312,71.123Z" style="fill:#b21f42"/><path d="M238.492,54.592a12.077,12.077,0,0,0,3.14,6.078c3.108,3.3,9.413,7.892,17.212,2.322,3.849-2.749,5.455-5.895,5.905-8.841,1.008-6.592-3.813-12.526-10.367-13.751a14.6,14.6,0,0,0-10.738,1.9C238.05,45.826,237.86,51.133,238.492,54.592Z" style="fill:#f74f73"/><path d="M89.207,66.424a9.082,9.082,0,0,0-4.77-1.938c-3.393-.365-9.245.1-10.976,7.1a9.94,9.94,0,0,0,.952,7.945c2.651,4.262,8.312,5.294,12.659,2.786a10.993,10.993,0,0,0,5.211-6.341A8.488,8.488,0,0,0,89.207,66.424Z" style="fill:#b21f42"/><path d="M115.56,84.722A8.492,8.492,0,0,0,111.1,82.91c-3.172-.341-8.643.091-10.262,6.637a9.3,9.3,0,0,0,.891,7.427,8.726,8.726,0,0,0,11.834,2.6,10.274,10.274,0,0,0,4.871-5.927A7.933,7.933,0,0,0,115.56,84.722Z" style="fill:#b21f42"/><path d="M315.778,78.919,239.164,97.248l16.041,17.33-52.089,48.416A34.179,34.179,0,0,1,168,170.107l-13.9-5.061a63.785,63.785,0,0,0-65.519,13.275L28.832,233.854l20.239,21.772,59.744-55.533a34.185,34.185,0,0,1,35.114-7.114l13.906,5.062a63.789,63.789,0,0,0,65.519-13.274L275.4,136.392l16.184,17.484Z" style="fill:#ffbe71"/><rect x="72.613" y="274.747" width="41.014" height="52.062" style="fill:#bddeff"/><rect x="171.394" y="234.122" width="41.014" height="92.687" style="fill:#7aaeed"/><rect x="270.149" y="178.634" width="41.014" height="148.175" style="fill:#6f8dd8"/><circle cx="219.672" cy="22.987" r="5.083" style="fill:#f74f73"/><circle cx="111.117" cy="65.728" r="6.432" style="fill:#b21f42"/><path d="M37.354,148.413a21.364,21.364,0,0,0,17.714-5.092,22.568,22.568,0,0,0,7.6-17.928c-.013-.344-.034-.691-.061-1.039a36.357,36.357,0,0,1,5.925-5.88,8.982,8.982,0,0,1,8.688-1.25,50.958,50.958,0,0,0,24.063,2.791,47.855,47.855,0,0,0,14.371-3.829,5.983,5.983,0,0,1,5.206.2l5.373,2.828a10.6,10.6,0,0,0,12.549-2.2l1.459-1.566a10.6,10.6,0,0,0,.914-13.252l-3.947-6.151a3.025,3.025,0,0,1-.339-2.569c1.258-3.889,2.764-9.279,2.8-12.871a8.393,8.393,0,0,1,4.148-7.107c10.271-6.214,21.269-15.369,25.04-18.59,7.817,1.565,14.171.538,18.909-3.061,7.2-5.466,7.59-14.752,7.6-15.144,0-.105,0-.21,0-.315-.381-6.648-5.429-19.007-21.755-18.134-5.885.309-10.57,2.4-13.925,6.212-4.426,5.029-5.148,11.653-5.224,14.772a43.539,43.539,0,0,1-18.266,9.947,8.35,8.35,0,0,1-8.183-2.38,36.234,36.234,0,0,0-5.247-4.6c-9.844-7.064-26.134-13.65-47.835-4.918-20.628,8.3-28.39,28.3-21.295,54.851a40.607,40.607,0,0,0,1.395,4.293,9.185,9.185,0,0,1-.415,7.9,15.607,15.607,0,0,1-4.738,5.74c-3.982-1.226-14.264-3.315-22.425,4.306-10.824,10.105-5.662,21.576-3.966,25.346C25.279,143.718,31.114,147.373,37.354,148.413ZM32.18,119.449a13.937,13.937,0,0,1,9.765-3.67,19.722,19.722,0,0,1,6.893,1.268,3.457,3.457,0,0,0,2.778-.036c3.526-1.594,6.568-4.725,9.047-9.3l.016-.024,7.709-13.556a11.1,11.1,0,0,0,1.094-8.348L69.067,84.2a3.468,3.468,0,0,0-6.709,1.759l.415,1.583a4.2,4.2,0,0,1-.414,3.159l-1.25,2.2c-.279-.812-.579-1.809-.778-2.553-3.577-13.39-6.1-37.254,17.184-46.626,18.778-7.559,32.77-1.932,41.2,4.119a29.3,29.3,0,0,1,4.241,3.715A15.276,15.276,0,0,0,137.945,55.9a50.6,50.6,0,0,0,22.4-12.658,3.471,3.471,0,0,0,1.059-2.764c-.006-.068-.407-7,3.487-11.424,2.1-2.392,5.076-3.658,9.083-3.869,12.732-.671,14.279,9.57,14.451,11.431-.083,1.012-.728,6.613-4.9,9.745-3.346,2.515-8.328,2.992-14.8,1.419a3.467,3.467,0,0,0-3.107.765c-.134.118-13.51,11.829-25.359,19-.664.372-9.82,5.51-14.066,7.633a3.468,3.468,0,1,0,3.1,6.2c.976-.487,2.186-1.12,3.479-1.81-.023.322-.037.646-.04.972-.019,2.087-.915,6.024-2.46,10.8a9.927,9.927,0,0,0,1.1,8.449l3.989,6.217c.031.05.064.1.1.144a3.637,3.637,0,0,1-.3,4.573L133.7,112.29a3.622,3.622,0,0,1-4.273.772l-5.341-2.81a12.972,12.972,0,0,0-11.287-.389,40.954,40.954,0,0,1-12.292,3.259,44.123,44.123,0,0,1-20.817-2.377,15.95,15.95,0,0,0-15.429,2.261,41.468,41.468,0,0,0-8.115,8.4,3.476,3.476,0,0,0-.572,2.4c.082.622.135,1.248.16,1.864a15.657,15.657,0,0,1-5.257,12.448A14.278,14.278,0,0,1,38.5,141.572c-5.064-.845-8.225-3.663-8.69-4.695C27.423,131.58,25.841,125.367,32.18,119.449Z" style="fill:#3c3c4f"/><path d="M151.65,114.863c-7.559,5.872-8.863,16.843-2.966,24.977a20.767,20.767,0,0,0,12.873,8.464,19.2,19.2,0,0,0,3.721.376c5.767,0,10.742-2.842,14.259-8.235a17.69,17.69,0,0,0,2.81-9.642c.034-10.929-5.743-18.006-15.85-19.415C160.66,110.574,155.666,111.744,151.65,114.863Zm23.761,15.919a10.768,10.768,0,0,1-1.684,5.873c-2.678,4.108-6.321,5.741-10.821,4.844a13.766,13.766,0,0,1-8.607-5.731c-3.687-5.087-2.982-11.863,1.606-15.427a11.347,11.347,0,0,1,7.159-2.262,17.878,17.878,0,0,1,2.475.18C172.113,119.175,175.434,123.388,175.411,130.782Z" style="fill:#3c3c4f"/><path d="M314.967,75.534l-76.614,18.33a3.469,3.469,0,0,0-1.738,5.729l13.69,14.789-49.554,46.061a30.726,30.726,0,0,1-31.566,6.394l-13.906-5.062a67.233,67.233,0,0,0-69.066,13.994L26.468,231.3a3.467,3.467,0,0,0-.179,4.9l20.238,21.771a3.467,3.467,0,0,0,4.9.179l59.744-55.532a30.732,30.732,0,0,1,31.567-6.4l13.906,5.061A67.248,67.248,0,0,0,225.711,187.3l49.5-46.009,13.825,14.935a3.468,3.468,0,0,0,5.845-1.291l24.195-74.958a3.468,3.468,0,0,0-4.107-4.438ZM290.1,147.161l-12.159-13.137a3.47,3.47,0,0,0-2.415-1.109,3.419,3.419,0,0,0-2.491.925l-52.044,48.375a60.336,60.336,0,0,1-61.972,12.555l-13.9-5.061a37.637,37.637,0,0,0-38.662,7.833l-57.2,53.171L33.73,234.022l57.205-53.173a60.339,60.339,0,0,1,61.972-12.556l13.905,5.062a37.632,37.632,0,0,0,38.662-7.832l52.088-48.417a3.467,3.467,0,0,0,.184-4.9L245.731,99.23l64.846-15.514Z" style="fill:#3c3c4f"/><path d="M113.623,271.268H72.609a3.468,3.468,0,0,0-3.468,3.468V326.8a3.468,3.468,0,0,0,3.468,3.468h41.014a3.468,3.468,0,0,0,3.468-3.468V274.736A3.468,3.468,0,0,0,113.623,271.268Zm-3.468,52.061H76.077V278.2h34.078Z" style="fill:#3c3c4f"/><path d="M212.405,230.643H171.391a3.468,3.468,0,0,0-3.468,3.468V326.8a3.468,3.468,0,0,0,3.468,3.468h41.014a3.468,3.468,0,0,0,3.468-3.468V234.111A3.468,3.468,0,0,0,212.405,230.643Zm-3.468,92.686H174.859v-85.75h34.078Z" style="fill:#3c3c4f"/><path d="M311.159,175.155H270.145a3.468,3.468,0,0,0-3.468,3.468V326.8a3.468,3.468,0,0,0,3.468,3.468h41.014a3.468,3.468,0,0,0,3.468-3.468V178.623A3.468,3.468,0,0,0,311.159,175.155Zm-3.468,148.174H273.613V182.091h34.078Z" style="fill:#3c3c4f"/></g></svg>